{"title":"The.Specialist.1994.SWESUB.DVDRip.XviD.-Zen_Bud","uid":5697218,"size":745070040,"categoryP":"video","categoryS":"movies","magnet":"?xt=urn:btih:5d13c9935df285527a01244a48d2296568e8c53a&amp;dn=The.Specialist.1994.SWESUB.DVDRip.XviD.-Zen_Bud&amp;tr=udp%3A%2F%2Ftracker.openbittorrent.com%3A80&amp;tr=udp%3A%2F%2Fopen.demonii.com%3A1337&amp;tr=udp%3A%2F%2Ftracker.coppersurfer.tk%3A6969&amp;tr=udp%3A%2F%2Fexodus.desync.com%3A6969","seeders":2,"leechers":0,"uploader":null,"files":1,"time":1279355650,"description":"General\nComplete name                    : The.Specialist.1994.avi\nFormat                           : AVI\nFormat/Info                      : Audio Video Interleave\nFile size                        : 711 MiB\nDuration                         : 1h 45mn\nOverall bit rate                 : 940 Kbps\n\nVideo\n\nFormat                           : MPEG-4 Visual\nCodec ID/Hint                    : XviD\nDuration                         : 1h 45mn\nBit rate                         : 799 Kbps\nWidth                            : 720 pixels\nHeight                           : 560 pixels\nDisplay aspect ratio             : 16:9\nStream size                      : 604 MiB (85%)\nWriting library                  : XviD 1.1.2 (UTC 2006-11-01)\n\nAudio\n\nFormat                           : MPEG Audio\nCodec ID/Hint                    : MP3\nDuration                         : 1h 45mn\nBit rate                         : 128 Kbps\nChannel(s)                       : 2 channels\nSampling rate                    : 48.0 KHz\nStream size                      : 96.8 MiB (14%)\nWriting library                  : LAME3.98\n\n","torrent":{"xt":"urn:btih:5d13c9935df285527a01244a48d2296568e8c53a","amp;dn":"The.Specialist.1994.SWESUB.DVDRip.XviD.-Zen_Bud","amp;tr":["udp%3A%2F%2Ftracker.openbittorrent.com%3A80","udp%3A%2F%2Fopen.demonii.com%3A1337","udp%3A%2F%2Ftracker.coppersurfer.tk%3A6969","udp%3A%2F%2Fexodus.desync.com%3A6969"],"infoHash":"5d13c9935df285527a01244a48d2296568e8c53a","infoHashBuffer":{"type":"Buffer","data":[93,19,201,147,93,242,133,82,122,1,36,74,72,210,41,101,104,232,197,58]},"announce":[],"urlList":[]}}